<svg width="40" height="40" viewBox="0 0 40 40" fill="none" xmlns="http://www.w3.org/2000/svg">
<path d="M26.4607 0.816406C24.7199 0.936814 22.6852 2.05109 21.4995 3.5021C20.4178 4.81842 19.5281 6.77351 19.875 8.6735C21.777 8.73269 23.7423 7.59188 24.8811 6.11637C25.9464 4.74291 26.7525 2.80007 26.4607 0.816406Z" fill="#62C672"/>
<path d="M33.3405 11.7712C31.6691 9.67531 29.3202 8.45898 27.1018 8.45898C24.1733 8.45898 22.9345 9.86102 20.8998 9.86102C18.8019 9.86102 17.208 8.46307 14.6754 8.46307C12.1876 8.46307 9.53865 9.98347 7.85906 12.5835C5.49785 16.2447 5.90193 23.1283 9.72844 28.9915C11.0978 31.0895 12.9264 33.4487 15.3182 33.4691C17.4468 33.4895 18.0468 32.1038 20.9304 32.0895C23.8141 32.0732 24.361 33.4874 26.4855 33.465C28.8793 33.4466 30.8079 30.8323 32.1773 28.7344C33.1589 27.2303 33.5242 26.4732 34.2854 24.7752C28.7487 22.6671 27.861 14.7936 33.3405 11.7712Z" fill="#62C672"/>
</svg>
