<svg width="29" height="28" viewBox="0 0 29 28" fill="none" xmlns="http://www.w3.org/2000/svg">
<path d="M15.75 2.33301C15.75 1.64265 15.1904 1.08301 14.5 1.08301C13.8096 1.08301 13.25 1.64265 13.25 2.33301L15.75 2.33301ZM13.6161 20.7169C14.1043 21.205 14.8957 21.205 15.3839 20.7169L23.3388 12.7619C23.827 12.2738 23.827 11.4823 23.3388 10.9942C22.8507 10.506 22.0592 10.506 21.5711 10.9942L14.5 18.0652L7.42893 10.9942C6.94078 10.506 6.14932 10.506 5.66116 10.9942C5.17301 11.4823 5.17301 12.2738 5.66116 12.7619L13.6161 20.7169ZM13.25 2.33301L13.25 19.833L15.75 19.833L15.75 2.33301L13.25 2.33301Z" fill="white"/>
<path d="M25 21V23.6667C25 24.7712 24.1046 25.6667 23 25.6667H6C4.89543 25.6667 4 24.7712 4 23.6667V21" stroke="white" stroke-width="2.5" stroke-linecap="round"/>
</svg>
