<svg width="41" height="40" viewBox="0 0 41 40" fill="none" xmlns="http://www.w3.org/2000/svg">
<g clip-path="url(#clip0_5716_196862)">
<path d="M22.8688 20.003L7.08612 35.2006C6.34704 34.6955 5.90824 33.8554 5.91599 32.9602V7.04568C5.90824 6.15054 6.34704 5.31039 7.08612 4.8053L22.8688 20.003Z" fill="#62C672"/>
<path d="M28.3914 14.6944L22.8689 20.0028L7.08618 4.80517C7.14565 4.75909 7.20759 4.71621 7.27167 4.67674C8.1058 4.17118 9.1477 4.15486 9.99728 4.63393L28.3914 14.6944Z" fill="#3E9D4D"/>
<path d="M35.0841 20.0029C35.0944 21.0134 34.5453 21.9468 33.6571 22.4288L28.3914 25.3114L22.8689 20.0029L28.3914 14.6944L33.6571 17.5769C34.5453 18.059 35.0944 18.9924 35.0841 20.0029Z" fill="#2A7135"/>
<path d="M28.3914 25.3114L9.99728 35.3718C9.14583 35.8435 8.10788 35.8272 7.27167 35.329C7.20759 35.2896 7.14565 35.2467 7.08618 35.2006L22.8689 20.0029L28.3914 25.3114Z" fill="#3E9D4D"/>
</g>
<defs>
<clipPath id="clip0_5716_196862">
<rect width="31.4286" height="31.4286" fill="white" transform="translate(4.78577 4.28571)"/>
</clipPath>
</defs>
</svg>
